<svg xmlns="http://www.w3.org/2000/svg" width="460" height="220" viewBox="0 0 460 220" role="img" aria-labelledby="gps-title" shape-rendering="geometricPrecision" text-rendering="optimizeLegibility" font-family="-apple-system, BlinkMacSystemFont, 'Segoe UI', Inter, 'Helvetica Neue', Arial, sans-serif" style="font-variant-numeric:tabular-nums"><title id="gps-title">GitHub stats for showcase</title><rect width="100%" height="100%" fill="#ffffff"/><text x="23" y="39" font-size="10.5" font-weight="600" fill="#656d76" letter-spacing="0.09em">STATS</text><svg x="23" y="66" width="14" height="14" viewBox="0 0 16 16" fill="none" stroke="#656d76" stroke-width="1.5" stroke-linecap="round" stroke-linejoin="round" aria-hidden="true"><rect x="2.4" y="3.2" width="11.2" height="7.6" rx="1.6"/><path d="M5.6 13.3l2.3-2.5"/><path d="M5.9 6.8l1.7 1.7 2.6-3"/></svg><text x="45" y="77" font-size="12.5" font-weight="400" fill="#15181d">Reviews</text><text x="329" y="77" font-size="12.5" font-weight="600" fill="#15181d" text-anchor="end">92</text><svg x="23" y="96" width="14" height="14" viewBox="0 0 16 16" fill="none" stroke="#656d76" stroke-width="1.5" stroke-linecap="round" stroke-linejoin="round" aria-hidden="true"><rect x="3.1" y="2.6" width="9.8" height="10.8" rx="1.5"/><path d="M6.1 2.6v6.7l1.9-1.3 1.9 1.3V2.6"/></svg><text x="45" y="107" font-size="12.5" font-weight="400" fill="#15181d">Contributed To</text><text x="329" y="107" font-size="12.5" font-weight="600" fill="#15181d" text-anchor="end">57</text><circle cx="393" cy="117" r="34" fill="none" stroke="#e4e8ee" stroke-width="3"/><circle cx="393" cy="117" r="34" fill="none" stroke="#0b69d4" stroke-width="3" stroke-linecap="round" stroke-dasharray="211.8 213.6" transform="rotate(-90 393 117)"/><text x="393" y="126" font-size="27" font-weight="600" fill="#15181d" text-anchor="middle">S</text><text x="393" y="169" font-size="10" font-weight="400" fill="#656d76" text-anchor="middle">RANK · 16,636</text></svg>