<svg xmlns="http://www.w3.org/2000/svg" width="1000" height="420" viewBox="0 0 1000 420" role="img"><defs><linearGradient id="bg" x1="0" y1="0" x2="1" y2="1"><stop offset="0%" stop-color="#f6f8ff"/><stop offset="100%" stop-color="#f0e7ff"/></linearGradient><filter id="shadow" x="-10%" y="-10%" width="120%" height="130%"><feDropShadow dx="0" dy="8" stdDeviation="10" flood-color="#1f2937" flood-opacity="0.12"/></filter></defs><rect width="100%" height="100%" fill="url(#bg)"/><g filter="url(#shadow)"><rect x="24" y="24" width="468" height="178" rx="18" fill="#ffffff" stroke="#d8dee8"/><rect x="44" y="46" width="5" height="34" rx="2.5" fill="#6f42c1"/><text x="60" y="56" font-family="Arial, sans-serif" font-size="19" font-weight="700" fill="#24292f">Stats</text><text x="60" y="74" font-family="Arial, sans-serif" font-size="12" fill="#57606a">Profile overview</text></g><g><rect x="48" y="82" width="204" height="46" rx="12" fill="#f0e7ff" stroke="#d8dee8"/><circle cx="66" cy="99" r="5" fill="#6f42c1"/><text x="80" y="101" font-family="Arial, sans-serif" font-size="11" fill="#57606a">Stars</text><text x="64" y="119" font-family="Arial, sans-serif" font-size="18" font-weight="700" fill="#24292f">120</text></g><g><rect x="264" y="82" width="204" height="46" rx="12" fill="#f0e7ff" stroke="#d8dee8"/><circle cx="282" cy="99" r="5" fill="#1a7f37"/><text x="296" y="101" font-family="Arial, sans-serif" font-size="11" fill="#57606a">Commits</text><text x="280" y="119" font-family="Arial, sans-serif" font-size="18" font-weight="700" fill="#24292f">350</text></g><g><rect x="48" y="140" width="204" height="46" rx="12" fill="#f0e7ff" stroke="#d8dee8"/><circle cx="66" cy="157" r="5" fill="#fb8500"/><text x="80" y="159" font-family="Arial, sans-serif" font-size="11" fill="#57606a">Pull Requests</text><text x="64" y="177" font-family="Arial, sans-serif" font-size="18" font-weight="700" fill="#24292f">21</text></g><g><rect x="264" y="140" width="204" height="46" rx="12" fill="#f0e7ff" stroke="#d8dee8"/><circle cx="282" cy="157" r="5" fill="#d63384"/><text x="296" y="159" font-family="Arial, sans-serif" font-size="11" fill="#57606a">Rank</text><text x="280" y="177" font-family="Arial, sans-serif" font-size="18" font-weight="700" fill="#24292f">A</text></g><g filter="url(#shadow)"><rect x="508" y="24" width="468" height="178" rx="18" fill="#ffffff" stroke="#d8dee8"/><rect x="528" y="46" width="5" height="34" rx="2.5" fill="#6f42c1"/><text x="544" y="56" font-family="Arial, sans-serif" font-size="19" font-weight="700" fill="#24292f">Languages</text><text x="544" y="74" font-family="Arial, sans-serif" font-size="12" fill="#57606a">Repository language share</text></g><text x="532" y="92" font-family="Arial, sans-serif" font-size="12" fill="#24292f">Rust</text><text x="894" y="92" font-family="Arial, sans-serif" font-size="12" fill="#57606a">59.5%</text><rect x="626" y="82" width="270" height="10" rx="5" fill="#f0e7ff" stroke="none"/><rect x="626" y="82" width="160" height="10" rx="5" fill="#dea584" stroke="none"/><text x="532" y="116" font-family="Arial, sans-serif" font-size="12" fill="#24292f">TypeScript</text><text x="894" y="116" font-family="Arial, sans-serif" font-size="12" fill="#57606a">35.7%</text><rect x="626" y="106" width="270" height="10" rx="5" fill="#f0e7ff" stroke="none"/><rect x="626" y="106" width="96" height="10" rx="5" fill="#3178c6" stroke="none"/><text x="532" y="140" font-family="Arial, sans-serif" font-size="12" fill="#24292f">Shell</text><text x="894" y="140" font-family="Arial, sans-serif" font-size="12" fill="#57606a">4.8%</text><rect x="626" y="130" width="270" height="10" rx="5" fill="#f0e7ff" stroke="none"/><rect x="626" y="130" width="12" height="10" rx="5" fill="#89e051" stroke="none"/><g filter="url(#shadow)"><rect x="24" y="218" width="952" height="178" rx="18" fill="#ffffff" stroke="#d8dee8"/><rect x="44" y="240" width="5" height="34" rx="2.5" fill="#6f42c1"/><text x="60" y="250" font-family="Arial, sans-serif" font-size="19" font-weight="700" fill="#24292f">Streak</text><text x="60" y="268" font-family="Arial, sans-serif" font-size="12" fill="#57606a">Recent public activity</text></g><g><rect x="48" y="280" width="293" height="78" rx="16" fill="#f0e7ff" stroke="#d8dee8"/><text x="66" y="304" font-family="Arial, sans-serif" font-size="12" fill="#57606a">Current</text><text x="66" y="338" font-family="Arial, sans-serif" font-size="34" font-weight="800" fill="#24292f">1</text><rect x="66" y="346" width="257" height="4" rx="2" fill="#6f42c1"/></g><g><rect x="353" y="280" width="293" height="78" rx="16" fill="#f0e7ff" stroke="#d8dee8"/><text x="371" y="304" font-family="Arial, sans-serif" font-size="12" fill="#57606a">Longest</text><text x="371" y="338" font-family="Arial, sans-serif" font-size="34" font-weight="800" fill="#24292f">1</text><rect x="371" y="346" width="257" height="4" rx="2" fill="#1a7f37"/></g><g><rect x="658" y="280" width="293" height="78" rx="16" fill="#f0e7ff" stroke="#d8dee8"/><text x="676" y="304" font-family="Arial, sans-serif" font-size="12" fill="#57606a">Active Days</text><text x="676" y="338" font-family="Arial, sans-serif" font-size="34" font-weight="800" fill="#24292f">2</text><rect x="676" y="346" width="257" height="4" rx="2" fill="#fb8500"/></g></svg>
