<svg xmlns="http://www.w3.org/2000/svg" width="1000" height="420" viewBox="0 0 1000 420" role="img"><defs><linearGradient id="bg" x1="0" y1="0" x2="1" y2="1"><stop offset="0%" stop-color="#f6f8ff"/><stop offset="100%" stop-color="#f0e7ff"/></linearGradient><filter id="shadow" x="-10%" y="-10%" width="120%" height="130%"><feDropShadow dx="0" dy="8" stdDeviation="10" flood-color="#1f2937" flood-opacity="0.12"/></filter></defs><rect width="100%" height="100%" fill="url(#bg)"/><g filter="url(#shadow)"><rect x="24" y="24" width="468" height="178" rx="18" fill="#ffffff" stroke="#d8dee8"/><rect x="44" y="46" width="5" height="34" rx="2.5" fill="#6f42c1"/><text x="60" y="56" font-family="Arial, sans-serif" font-size="19" font-weight="700" fill="#24292f">Stats</text><text x="60" y="74" font-family="Arial, sans-serif" font-size="12" fill="#57606a">Profile overview</text></g><g><circle cx="56" cy="91" r="5" fill="#6f42c1"/><text x="70" y="95" font-family="Arial, sans-serif" font-size="12" font-weight="700" fill="#24292f">Total Stars</text><text x="318" y="95" text-anchor="end" font-family="Arial, sans-serif" font-size="14" font-weight="800" fill="#24292f">120</text></g><g><circle cx="56" cy="119" r="5" fill="#1a7f37"/><text x="70" y="123" font-family="Arial, sans-serif" font-size="12" font-weight="700" fill="#24292f">Commits</text><text x="318" y="123" text-anchor="end" font-family="Arial, sans-serif" font-size="14" font-weight="800" fill="#24292f">350</text></g><g><circle cx="56" cy="147" r="5" fill="#fb8500"/><text x="70" y="151" font-family="Arial, sans-serif" font-size="12" font-weight="700" fill="#24292f">Pull Requests</text><text x="318" y="151" text-anchor="end" font-family="Arial, sans-serif" font-size="14" font-weight="800" fill="#24292f">21</text></g><g><circle cx="56" cy="175" r="5" fill="#d63384"/><text x="70" y="179" font-family="Arial, sans-serif" font-size="12" font-weight="700" fill="#24292f">Issues</text><text x="318" y="179" text-anchor="end" font-family="Arial, sans-serif" font-size="14" font-weight="800" fill="#24292f">13</text></g><g><circle cx="398" cy="134" r="42" fill="#ffffff" stroke="#f0e7ff" stroke-width="10"/><circle cx="398" cy="134" r="42" fill="none" stroke="#1a7f37" stroke-width="10" stroke-linecap="round" stroke-dasharray="205 264" transform="rotate(-90 398 134)"/><text x="398" y="142" text-anchor="middle" font-family="Arial, sans-serif" font-size="30" font-weight="900" fill="#24292f">B+</text><text x="398" y="112" text-anchor="middle" font-family="Arial, sans-serif" font-size="10" font-weight="700" fill="#57606a">RANK</text><text x="398" y="161" text-anchor="middle" font-family="Arial, sans-serif" font-size="10" fill="#57606a">score 619</text></g><g filter="url(#shadow)"><rect x="508" y="24" width="468" height="178" rx="18" fill="#ffffff" stroke="#d8dee8"/><rect x="528" y="46" width="5" height="34" rx="2.5" fill="#6f42c1"/><text x="544" y="56" font-family="Arial, sans-serif" font-size="19" font-weight="700" fill="#24292f">Languages</text><text x="544" y="74" font-family="Arial, sans-serif" font-size="12" fill="#57606a">Repository language share</text></g><rect x="532" y="81" width="420" height="14" rx="7" fill="#f0e7ff" stroke="none"/><rect x="534" y="82" width="247" height="12" rx="6" fill="#dea584" stroke="none"/><rect x="781" y="82" width="148" height="12" rx="6" fill="#3178c6" stroke="none"/><rect x="929" y="82" width="19" height="12" rx="6" fill="#89e051" stroke="none"/><text x="532" y="125" font-family="Arial, sans-serif" font-size="12" fill="#24292f">Rust</text><text x="894" y="125" font-family="Arial, sans-serif" font-size="12" fill="#57606a">59.5%</text><rect x="626" y="116" width="270" height="9" rx="5" fill="#f0e7ff" stroke="none"/><rect x="626" y="116" width="160" height="9" rx="5" fill="#dea584" stroke="none"/><text x="532" y="146" font-family="Arial, sans-serif" font-size="12" fill="#24292f">TypeScript</text><text x="894" y="146" font-family="Arial, sans-serif" font-size="12" fill="#57606a">35.7%</text><rect x="626" y="137" width="270" height="9" rx="5" fill="#f0e7ff" stroke="none"/><rect x="626" y="137" width="96" height="9" rx="5" fill="#3178c6" stroke="none"/><text x="532" y="167" font-family="Arial, sans-serif" font-size="12" fill="#24292f">Shell</text><text x="894" y="167" font-family="Arial, sans-serif" font-size="12" fill="#57606a">4.8%</text><rect x="626" y="158" width="270" height="9" rx="5" fill="#f0e7ff" stroke="none"/><rect x="626" y="158" width="12" height="9" rx="5" fill="#89e051" stroke="none"/><g filter="url(#shadow)"><rect x="24" y="218" width="952" height="178" rx="18" fill="#ffffff" stroke="#d8dee8"/><rect x="44" y="240" width="5" height="34" rx="2.5" fill="#6f42c1"/><text x="60" y="250" font-family="Arial, sans-serif" font-size="19" font-weight="700" fill="#24292f">Streak</text><text x="60" y="268" font-family="Arial, sans-serif" font-size="12" fill="#57606a">Recent public activity</text></g><g><rect x="48" y="292" width="306" height="72" rx="16" fill="#f0e7ff" stroke="#d8dee8"/><text x="66" y="314" font-family="Arial, sans-serif" font-size="12" fill="#57606a">Total Contributions</text><text x="66" y="347" font-family="Arial, sans-serif" font-size="32" font-weight="900" fill="#24292f">4</text><text x="124" y="347" font-family="Arial, sans-serif" font-size="11" fill="#57606a"></text><rect x="66" y="354" width="270" height="4" rx="2" fill="#6f42c1"/></g><g><text x="500" y="296" text-anchor="middle" font-family="Arial, sans-serif" font-size="12" font-weight="800" fill="#57606a">CURRENT STREAK</text><circle cx="500" cy="338" r="48" fill="#ffffff" stroke="#f0e7ff" stroke-width="10"/><circle cx="500" cy="338" r="48" fill="none" stroke="#ff9800" stroke-width="10" stroke-linecap="round" stroke-dasharray="226 302" transform="rotate(-90 500 338)"/><text x="500" y="350" text-anchor="middle" font-family="Arial, sans-serif" font-size="38" font-weight="900" fill="#24292f">1</text><text x="500" y="370" text-anchor="middle" font-family="Arial, sans-serif" font-size="12" font-weight="700" fill="#57606a">days</text></g><g><rect x="646" y="292" width="306" height="72" rx="16" fill="#f0e7ff" stroke="#d8dee8"/><text x="664" y="314" font-family="Arial, sans-serif" font-size="12" fill="#57606a">Longest Streak</text><text x="664" y="347" font-family="Arial, sans-serif" font-size="32" font-weight="900" fill="#24292f">1</text><text x="722" y="347" font-family="Arial, sans-serif" font-size="11" fill="#57606a">days</text><rect x="664" y="354" width="270" height="4" rx="2" fill="#1a7f37"/></g></svg>
