<svg xmlns="http://www.w3.org/2000/svg" width="420" height="220" viewBox="0 0 420 220" role="img"><defs><linearGradient id="bg" x1="0" y1="0" x2="1" y2="1"><stop offset="0%" stop-color="#f6f8ff"/><stop offset="100%" stop-color="#f0e7ff"/></linearGradient><filter id="shadow" x="-10%" y="-10%" width="120%" height="130%"><feDropShadow dx="0" dy="8" stdDeviation="10" flood-color="#1f2937" flood-opacity="0.12"/></filter></defs><rect width="100%" height="100%" fill="url(#bg)"/><g filter="url(#shadow)"><rect x="16" y="16" width="388" height="188" rx="18" fill="#ffffff" stroke="#d8dee8"/><rect x="36" y="38" width="5" height="34" rx="2.5" fill="#6f42c1"/><text x="52" y="48" font-family="Arial, sans-serif" font-size="19" font-weight="700" fill="#24292f">Stats</text><text x="52" y="66" font-family="Arial, sans-serif" font-size="12" fill="#57606a">Profile overview</text></g><g><rect x="40" y="74" width="164" height="46" rx="12" fill="#f0e7ff" stroke="#d8dee8"/><circle cx="58" cy="91" r="5" fill="#6f42c1"/><text x="72" y="93" font-family="Arial, sans-serif" font-size="11" fill="#57606a">Stars</text><text x="56" y="111" font-family="Arial, sans-serif" font-size="18" font-weight="700" fill="#24292f">120</text></g><g><rect x="216" y="74" width="164" height="46" rx="12" fill="#f0e7ff" stroke="#d8dee8"/><circle cx="234" cy="91" r="5" fill="#1a7f37"/><text x="248" y="93" font-family="Arial, sans-serif" font-size="11" fill="#57606a">Commits</text><text x="232" y="111" font-family="Arial, sans-serif" font-size="18" font-weight="700" fill="#24292f">350</text></g><g><rect x="40" y="132" width="164" height="46" rx="12" fill="#f0e7ff" stroke="#d8dee8"/><circle cx="58" cy="149" r="5" fill="#fb8500"/><text x="72" y="151" font-family="Arial, sans-serif" font-size="11" fill="#57606a">Pull Requests</text><text x="56" y="169" font-family="Arial, sans-serif" font-size="18" font-weight="700" fill="#24292f">21</text></g><g><rect x="216" y="132" width="164" height="46" rx="12" fill="#f0e7ff" stroke="#d8dee8"/><circle cx="234" cy="149" r="5" fill="#d63384"/><text x="248" y="151" font-family="Arial, sans-serif" font-size="11" fill="#57606a">Rank</text><text x="232" y="169" font-family="Arial, sans-serif" font-size="18" font-weight="700" fill="#24292f">A</text></g></svg>
