<svg xmlns="http://www.w3.org/2000/svg" width="275" height="330" viewBox="0 0 275 330" role="img" aria-labelledby="gps-title" shape-rendering="geometricPrecision" text-rendering="optimizeLegibility" font-family="-apple-system, BlinkMacSystemFont, 'Segoe UI', Inter, 'Helvetica Neue', Arial, sans-serif" style="font-variant-numeric:tabular-nums"><title id="gps-title">Coding activity for octo</title><rect width="100%" height="100%" fill="#ffffff"/><text x="16" y="32" font-size="10.5" font-weight="600" fill="#656d76" letter-spacing="0.09em">CODING ACTIVITY</text><text x="259" y="32" font-size="10.5" font-weight="600" fill="#656d76" text-anchor="end">AGENT TIME</text><text x="16" y="64" font-size="10.5" font-weight="600" fill="#656d76" letter-spacing="0.09em">LAST 30 DAYS</text><text x="16" y="90" font-size="21" font-weight="400" fill="#15181d">194 hrs 11 mins</text><text x="16" y="108" font-size="11" font-weight="400" fill="#656d76">every day active</text><text x="16" y="126" font-size="10.5" font-weight="600" fill="#656d76" letter-spacing="0.09em">ALL TIME</text><text x="16" y="152" font-size="17" font-weight="400" fill="#656d76">612 hrs 58 mins</text><text x="16" y="170" font-size="11" font-weight="400" fill="#656d76">95 days active</text><circle cx="20" cy="196" r="3.5" fill="#dea584"/><text x="31" y="200" font-size="11.5" font-weight="400" fill="#15181d">Rust</text><rect x="112" y="193" width="101" height="4" rx="2" fill="#e4e8ee"/><rect x="112" y="193" width="101" height="4" rx="2" fill="#dea584"/><rect x="191" y="190" width="2" height="10" rx="1" fill="#15181d" opacity="0.75"/><text x="259" y="200" font-size="11.5" font-weight="600" fill="#656d76" text-anchor="end">29.6%</text><circle cx="20" cy="212" r="3.5" fill="#0969da"/><text x="31" y="216" font-size="11.5" font-weight="400" fill="#15181d">Markdown</text><rect x="112" y="209" width="101" height="4" rx="2" fill="#e4e8ee"/><rect x="112" y="209" width="79" height="4" rx="2" fill="#0969da"/><rect x="180" y="206" width="2" height="10" rx="1" fill="#15181d" opacity="0.75"/><text x="259" y="216" font-size="11.5" font-weight="600" fill="#656d76" text-anchor="end">23.3%</text><circle cx="20" cy="228" r="3.5" fill="#00ADD8"/><text x="31" y="232" font-size="11.5" font-weight="400" fill="#15181d">Go</text><rect x="112" y="225" width="101" height="4" rx="2" fill="#e4e8ee"/><rect x="112" y="225" width="63" height="4" rx="2" fill="#00ADD8"/><rect x="198" y="222" width="2" height="10" rx="1" fill="#15181d" opacity="0.75"/><text x="259" y="232" font-size="11.5" font-weight="600" fill="#656d76" text-anchor="end">18.7%</text><circle cx="20" cy="244" r="3.5" fill="#3178c6"/><text x="31" y="248" font-size="11.5" font-weight="400" fill="#15181d">TypeScript</text><rect x="112" y="241" width="101" height="4" rx="2" fill="#e4e8ee"/><rect x="112" y="241" width="37" height="4" rx="2" fill="#3178c6"/><rect x="146" y="238" width="2" height="10" rx="1" fill="#15181d" opacity="0.75"/><text x="259" y="248" font-size="11.5" font-weight="600" fill="#656d76" text-anchor="end">10.8%</text><circle cx="20" cy="260" r="3.5" fill="#3572A5"/><text x="31" y="264" font-size="11.5" font-weight="400" fill="#15181d">Python</text><rect x="112" y="257" width="101" height="4" rx="2" fill="#e4e8ee"/><rect x="112" y="257" width="26" height="4" rx="2" fill="#3572A5"/><rect x="147" y="254" width="2" height="10" rx="1" fill="#15181d" opacity="0.75"/><text x="259" y="264" font-size="11.5" font-weight="600" fill="#656d76" text-anchor="end">7.7%</text><circle cx="20" cy="276" r="3.5" fill="#ec915c"/><text x="31" y="280" font-size="11.5" font-weight="400" fill="#15181d">Zig</text><rect x="112" y="273" width="101" height="4" rx="2" fill="#e4e8ee"/><rect x="112" y="273" width="19" height="4" rx="2" fill="#ec915c"/><rect x="126" y="270" width="2" height="10" rx="1" fill="#15181d" opacity="0.75"/><text x="259" y="280" font-size="11.5" font-weight="600" fill="#656d76" text-anchor="end">5.7%</text><text x="31" y="300" font-size="11" font-weight="400" fill="#656d76">120 hrs 23 mins not placed to a language</text></svg>