<svg xmlns="http://www.w3.org/2000/svg" width="1000" height="420" viewBox="0 0 1000 420" role="img"><defs><linearGradient id="bg" x1="0" y1="0" x2="1" y2="1"><stop offset="0%" stop-color="#f6f8ff"/><stop offset="100%" stop-color="#f0e7ff"/></linearGradient><filter id="shadow" x="-10%" y="-10%" width="120%" height="130%"><feDropShadow dx="0" dy="6" stdDeviation="8" flood-color="#1f2937" flood-opacity="0.10"/></filter></defs><rect width="100%" height="100%" fill="url(#bg)"/><g filter="url(#shadow)"><rect x="24" y="24" width="468" height="178" rx="18" fill="#ffffff" stroke="#d8dee8"/><rect x="44" y="46" width="5" height="34" rx="2.5" fill="#6f42c1"/><text x="60" y="56" font-family="Arial, sans-serif" font-size="19" font-weight="700" fill="#24292f">Stats</text><text x="60" y="74" font-family="Arial, sans-serif" font-size="12" fill="#57606a">Profile overview</text></g><g><circle cx="56" cy="91" r="5" fill="#6f42c1"/><text x="70" y="95" font-family="Arial, sans-serif" font-size="12" font-weight="700" fill="#24292f">Total Stars</text><text x="318" y="95" text-anchor="end" font-family="Arial, sans-serif" font-size="14" font-weight="800" fill="#24292f">12840</text></g><g><circle cx="56" cy="119" r="5" fill="#1a7f37"/><text x="70" y="123" font-family="Arial, sans-serif" font-size="12" font-weight="700" fill="#24292f">Commits</text><text x="318" y="123" text-anchor="end" font-family="Arial, sans-serif" font-size="14" font-weight="800" fill="#24292f">1840</text></g><g><circle cx="56" cy="147" r="5" fill="#fb8500"/><text x="70" y="151" font-family="Arial, sans-serif" font-size="12" font-weight="700" fill="#24292f">Pull Requests</text><text x="318" y="151" text-anchor="end" font-family="Arial, sans-serif" font-size="14" font-weight="800" fill="#24292f">326</text></g><g><circle cx="56" cy="175" r="5" fill="#d63384"/><text x="70" y="179" font-family="Arial, sans-serif" font-size="12" font-weight="700" fill="#24292f">Issues</text><text x="318" y="179" text-anchor="end" font-family="Arial, sans-serif" font-size="14" font-weight="800" fill="#24292f">118</text></g><g><circle cx="398" cy="134" r="42" fill="#ffffff" stroke="#f0e7ff" stroke-width="6"/><circle cx="398" cy="134" r="42" fill="none" stroke="#ff9800" stroke-width="6" stroke-linecap="round" stroke-dasharray="205 264" transform="rotate(-90 398 134)"/><text x="398" y="142" text-anchor="middle" font-family="Arial, sans-serif" font-size="30" font-weight="900" fill="#24292f">S</text><text x="398" y="112" text-anchor="middle" font-family="Arial, sans-serif" font-size="10" font-weight="700" fill="#57606a">RANK</text><text x="398" y="161" text-anchor="middle" font-family="Arial, sans-serif" font-size="10" fill="#57606a">score 16636</text></g><g filter="url(#shadow)"><rect x="508" y="24" width="468" height="178" rx="18" fill="#ffffff" stroke="#d8dee8"/><rect x="528" y="46" width="5" height="34" rx="2.5" fill="#6f42c1"/><text x="544" y="56" font-family="Arial, sans-serif" font-size="19" font-weight="700" fill="#24292f">Languages</text><text x="544" y="74" font-family="Arial, sans-serif" font-size="12" fill="#57606a">Repository language share</text></g><rect x="532" y="82" width="420" height="8" rx="4" fill="#f0e7ff" stroke="none"/><rect x="534" y="82" width="170" height="8" rx="4" fill="#dea584" stroke="none"/><rect x="704" y="82" width="127" height="8" rx="4" fill="#c065db" stroke="none"/><rect x="831" y="82" width="35" height="8" rx="4" fill="#f1e05a" stroke="none"/><rect x="866" y="82" width="30" height="8" rx="4" fill="#00ADD8" stroke="none"/><rect x="896" y="82" width="27" height="8" rx="4" fill="#ec915c" stroke="none"/><rect x="923" y="82" width="27" height="8" rx="4" fill="#384d54" stroke="none"/><text x="532" y="114" font-family="Arial, sans-serif" font-size="11" fill="#24292f">Rust</text><text x="894" y="114" font-family="Arial, sans-serif" font-size="11" fill="#57606a">40.9%</text><rect x="626" y="108" width="270" height="5" rx="3" fill="#f0e7ff" stroke="none"/><rect x="626" y="108" width="110" height="5" rx="3" fill="#dea584" stroke="none"/><text x="532" y="131" font-family="Arial, sans-serif" font-size="11" fill="#24292f">Emacs Lisp</text><text x="894" y="131" font-family="Arial, sans-serif" font-size="11" fill="#57606a">30.6%</text><rect x="626" y="125" width="270" height="5" rx="3" fill="#f0e7ff" stroke="none"/><rect x="626" y="125" width="82" height="5" rx="3" fill="#c065db" stroke="none"/><text x="532" y="148" font-family="Arial, sans-serif" font-size="11" fill="#24292f">JavaScript</text><text x="894" y="148" font-family="Arial, sans-serif" font-size="11" fill="#57606a">8.5%</text><rect x="626" y="142" width="270" height="5" rx="3" fill="#f0e7ff" stroke="none"/><rect x="626" y="142" width="22" height="5" rx="3" fill="#f1e05a" stroke="none"/><text x="532" y="165" font-family="Arial, sans-serif" font-size="11" fill="#24292f">Go</text><text x="894" y="165" font-family="Arial, sans-serif" font-size="11" fill="#57606a">7.3%</text><rect x="626" y="159" width="270" height="5" rx="3" fill="#f0e7ff" stroke="none"/><rect x="626" y="159" width="19" height="5" rx="3" fill="#00ADD8" stroke="none"/><text x="532" y="182" font-family="Arial, sans-serif" font-size="11" fill="#24292f">Zig</text><text x="894" y="182" font-family="Arial, sans-serif" font-size="11" fill="#57606a">6.6%</text><rect x="626" y="176" width="270" height="5" rx="3" fill="#f0e7ff" stroke="none"/><rect x="626" y="176" width="17" height="5" rx="3" fill="#ec915c" stroke="none"/><text x="532" y="199" font-family="Arial, sans-serif" font-size="11" fill="#24292f">Dockerfile</text><text x="894" y="199" font-family="Arial, sans-serif" font-size="11" fill="#57606a">6.2%</text><rect x="626" y="193" width="270" height="5" rx="3" fill="#f0e7ff" stroke="none"/><rect x="626" y="193" width="16" height="5" rx="3" fill="#384d54" stroke="none"/><g filter="url(#shadow)"><rect x="24" y="218" width="952" height="178" rx="18" fill="#ffffff" stroke="#d8dee8"/><rect x="44" y="240" width="5" height="34" rx="2.5" fill="#6f42c1"/><text x="60" y="250" font-family="Arial, sans-serif" font-size="19" font-weight="700" fill="#24292f">Streak</text><text x="60" y="268" font-family="Arial, sans-serif" font-size="12" fill="#57606a">Recent public activity</text></g><g><rect x="48" y="292" width="306" height="82" rx="16" fill="#f0e7ff" stroke="#d8dee8"/><text x="66" y="314" font-family="Arial, sans-serif" font-size="12" fill="#57606a">Total Contributions</text><text x="66" y="347" font-family="Arial, sans-serif" font-size="32" font-weight="900" fill="#24292f">65</text><text x="124" y="347" font-family="Arial, sans-serif" font-size="11" fill="#57606a"></text><rect x="66" y="354" width="270" height="2" rx="1" fill="#6f42c1"/><text x="66" y="368" font-family="Arial, sans-serif" font-size="10" fill="#57606a">Apr 30 2026</text></g><g><text x="500" y="288" text-anchor="middle" font-family="Arial, sans-serif" font-size="12" font-weight="800" fill="#57606a">CURRENT STREAK</text><path d="M500 292 C509 300 504 307 507 315 C500 322 493 317 489 309 C496 302 494 312 501 308 C497 302 500 292 500 292 Z" fill="#ff9800"/><circle cx="500" cy="342" r="38" fill="#ffffff" stroke="#f0e7ff" stroke-width="5"/><circle cx="500" cy="342" r="38" fill="none" stroke="#ff9800" stroke-width="5" stroke-linecap="round" stroke-dasharray="179 239" transform="rotate(-90 500 342)"/><text x="500" y="353" text-anchor="middle" font-family="Arial, sans-serif" font-size="36" font-weight="900" fill="#24292f">13</text><text x="500" y="371" text-anchor="middle" font-family="Arial, sans-serif" font-size="11" font-weight="700" fill="#57606a">days</text><text x="500" y="394" text-anchor="middle" font-family="Arial, sans-serif" font-size="11" fill="#57606a">Apr 18 2026 - Apr 30 2026</text></g><g><rect x="646" y="292" width="306" height="82" rx="16" fill="#f0e7ff" stroke="#d8dee8"/><text x="664" y="314" font-family="Arial, sans-serif" font-size="12" fill="#57606a">Longest Streak</text><text x="664" y="347" font-family="Arial, sans-serif" font-size="32" font-weight="900" fill="#24292f">13</text><text x="722" y="347" font-family="Arial, sans-serif" font-size="11" fill="#57606a">days</text><rect x="664" y="354" width="270" height="2" rx="1" fill="#1a7f37"/><text x="664" y="368" font-family="Arial, sans-serif" font-size="10" fill="#57606a">Apr 18 2026 - Apr 30 2026</text></g></svg>