<svg xmlns="http://www.w3.org/2000/svg" width="1000" height="420" viewBox="0 0 1000 420" role="img" shape-rendering="geometricPrecision" text-rendering="optimizeLegibility" font-family="-apple-system, BlinkMacSystemFont, 'Segoe UI', Inter, 'Helvetica Neue', Arial, sans-serif" style="font-variant-numeric:tabular-nums"><rect width="100%" height="100%" fill="#ffffff"/><text x="28" y="44" font-size="10.5" font-weight="600" fill="#656d76" letter-spacing="0.09em">STATS</text><svg x="28" y="71" width="14" height="14" viewBox="0 0 16 16" fill="none" stroke="#656d76" stroke-width="1.5" stroke-linecap="round" stroke-linejoin="round" aria-hidden="true"><path d="M8 2.6l1.72 3.48 3.84.56-2.78 2.71.66 3.83L8 11.37l-3.44 1.81.66-3.83-2.78-2.71 3.84-.56z"/></svg><text x="50" y="82" font-size="12.5" font-weight="400" fill="#15181d">Total Stars</text><text x="372" y="82" font-size="12.5" font-weight="600" fill="#15181d" text-anchor="end">12,840</text><svg x="28" y="101" width="14" height="14" viewBox="0 0 16 16" fill="none" stroke="#656d76" stroke-width="1.5" stroke-linecap="round" stroke-linejoin="round" aria-hidden="true"><circle cx="8" cy="8" r="2.4"/><path d="M1.4 8h4.2M10.4 8h4.2"/></svg><text x="50" y="112" font-size="12.5" font-weight="400" fill="#15181d">Commits</text><text x="372" y="112" font-size="12.5" font-weight="600" fill="#15181d" text-anchor="end">1,840</text><svg x="28" y="131" width="14" height="14" viewBox="0 0 16 16" fill="none" stroke="#656d76" stroke-width="1.5" stroke-linecap="round" stroke-linejoin="round" aria-hidden="true"><circle cx="4.9" cy="4" r="1.8"/><circle cx="4.9" cy="12" r="1.8"/><circle cx="11.1" cy="4" r="1.8"/><path d="M4.9 5.8v4.4M11.1 5.8v1.9c0 2.1-1.7 2.9-3.7 3.2"/></svg><text x="50" y="142" font-size="12.5" font-weight="400" fill="#15181d">Pull Requests</text><text x="372" y="142" font-size="12.5" font-weight="600" fill="#15181d" text-anchor="end">326</text><svg x="28" y="161" width="14" height="14" viewBox="0 0 16 16" fill="none" stroke="#656d76" stroke-width="1.5" stroke-linecap="round" stroke-linejoin="round" aria-hidden="true"><circle cx="8" cy="8" r="5.7"/><path d="M8 4.9v3.4"/><circle cx="8" cy="11.1" r="0.85" fill="#656d76" stroke="none"/></svg><text x="50" y="172" font-size="12.5" font-weight="400" fill="#15181d">Issues</text><text x="372" y="172" font-size="12.5" font-weight="600" fill="#15181d" text-anchor="end">118</text><circle cx="440" cy="124" r="38" fill="none" stroke="#e4e8ee" stroke-width="3"/><circle cx="440" cy="124" r="38" fill="none" stroke="#0b69d4" stroke-width="3" stroke-linecap="round" stroke-dasharray="236.7 238.8" transform="rotate(-90 440 124)"/><text x="440" y="134" font-size="30" font-weight="600" fill="#15181d" text-anchor="middle">S</text><text x="440" y="180" font-size="10" font-weight="400" fill="#656d76" text-anchor="middle">RANK · 16,636</text><path d="M500.5 30V206" stroke="#ebedf0" stroke-width="1"/><text x="512" y="44" font-size="10.5" font-weight="600" fill="#656d76" letter-spacing="0.09em">LANGUAGES</text><defs><clipPath id="gps-language-bar"><rect x="512" y="60" width="460" height="5" rx="2.5"/></clipPath></defs><rect x="512" y="60" width="460" height="5" rx="2.5" fill="#e4e8ee"/><g clip-path="url(#gps-language-bar)"><rect x="512" y="60" width="188" height="5" fill="#dea584"/><rect x="700" y="60" width="140" height="5" fill="#c065db"/><rect x="840" y="60" width="39" height="5" fill="#f1e05a"/><rect x="879" y="60" width="34" height="5" fill="#00ADD8"/><rect x="913" y="60" width="30" height="5" fill="#ec915c"/><rect x="943" y="60" width="28" height="5" fill="#384d54"/></g><circle cx="516" cy="96" r="4" fill="#dea584"/><text x="528" y="100" font-size="12" font-weight="400" fill="#15181d">Rust</text><text x="730" y="100" font-size="12" font-weight="600" fill="#656d76" text-anchor="end">40.9%</text><circle cx="516" cy="120" r="4" fill="#c065db"/><text x="528" y="124" font-size="12" font-weight="400" fill="#15181d">Emacs Lisp</text><text x="730" y="124" font-size="12" font-weight="600" fill="#656d76" text-anchor="end">30.6%</text><circle cx="516" cy="144" r="4" fill="#f1e05a"/><text x="528" y="148" font-size="12" font-weight="400" fill="#15181d">JavaScript</text><text x="730" y="148" font-size="12" font-weight="600" fill="#656d76" text-anchor="end">8.5%</text><circle cx="758" cy="96" r="4" fill="#00ADD8"/><text x="770" y="100" font-size="12" font-weight="400" fill="#15181d">Go</text><text x="972" y="100" font-size="12" font-weight="600" fill="#656d76" text-anchor="end">7.3%</text><circle cx="758" cy="120" r="4" fill="#ec915c"/><text x="770" y="124" font-size="12" font-weight="400" fill="#15181d">Zig</text><text x="972" y="124" font-size="12" font-weight="600" fill="#656d76" text-anchor="end">6.6%</text><circle cx="758" cy="144" r="4" fill="#384d54"/><text x="770" y="148" font-size="12" font-weight="400" fill="#15181d">Dockerfile</text><text x="972" y="148" font-size="12" font-weight="600" fill="#656d76" text-anchor="end">6.2%</text><path d="M28 222.5H972" stroke="#ebedf0" stroke-width="1"/><text x="28" y="254" font-size="10.5" font-weight="600" fill="#656d76" letter-spacing="0.09em">STREAK</text><text x="28" y="294" font-size="11" font-weight="400" fill="#656d76">Total Contributions</text><text x="28" y="334" font-size="34" font-weight="600" fill="#15181d">65</text><text x="28" y="360" font-size="11" font-weight="400" fill="#656d76">through Apr 30 2026</text><path d="M330.5 262V392" stroke="#ebedf0" stroke-width="1"/><path d="M499.00 285.00L499.00 275.00" stroke="#ffc65c" stroke-width="3.6" stroke-linecap="round"/><path d="M511.55 288.09L516.19 279.24" stroke="#ffe3ad" stroke-width="3.6" stroke-linecap="round"/><path d="M521.22 296.66L529.45 290.98" stroke="#fb8c00" stroke-width="3.6" stroke-linecap="round"/><path d="M525.80 308.75L535.73 307.54" stroke="#fb8c00" stroke-width="3.6" stroke-linecap="round"/><path d="M524.25 321.57L533.60 325.12" stroke="#ffa726" stroke-width="3.6" stroke-linecap="round"/><path d="M516.90 332.21L523.54 339.69" stroke="#ffe3ad" stroke-width="3.6" stroke-linecap="round"/><path d="M505.46 338.22L507.85 347.92" stroke="#ffc65c" stroke-width="3.6" stroke-linecap="round"/><path d="M492.54 338.22L490.15 347.92" stroke="#fb8c00" stroke-width="3.6" stroke-linecap="round"/><path d="M481.10 332.21L474.46 339.69" stroke="#ffa726" stroke-width="3.6" stroke-linecap="round"/><path d="M473.75 321.57L464.40 325.12" stroke="#ffe3ad" stroke-width="3.6" stroke-linecap="round"/><path d="M472.20 308.75L462.27 307.54" stroke="#ffc65c" stroke-width="3.6" stroke-linecap="round"/><path d="M476.78 296.66L468.55 290.98" stroke="#ffe3ad" stroke-width="3.6" stroke-linecap="round"/><path d="M486.45 288.09L481.81 279.24" stroke="#ffc65c" stroke-width="3.6" stroke-linecap="round"/><text x="499" y="320" font-size="26" font-weight="600" fill="#15181d" text-anchor="middle">13</text><text x="499" y="370" font-size="11.5" font-weight="400" fill="#656d76" text-anchor="middle">Current Streak</text><text x="499" y="387" font-size="10.5" font-weight="400" fill="#656d76" text-anchor="middle">Apr 18 2026 – Apr 30 2026</text><path d="M644.5 262V392" stroke="#ebedf0" stroke-width="1"/><text x="656" y="294" font-size="11" font-weight="400" fill="#656d76">Longest Streak</text><text x="656" y="334" font-size="34" font-weight="600" fill="#15181d">13</text><text x="702" y="334" font-size="11.5" font-weight="400" fill="#656d76">days</text><text x="656" y="360" font-size="11" font-weight="400" fill="#656d76">Apr 18 2026 – Apr 30 2026</text></svg>