<svg xmlns="http://www.w3.org/2000/svg" width="520" height="260" viewBox="0 0 520 260" role="img"><defs><linearGradient id="bg" x1="0" y1="0" x2="1" y2="1"><stop offset="0%" stop-color="#f6f8ff"/><stop offset="100%" stop-color="#f0e7ff"/></linearGradient><filter id="shadow" x="-10%" y="-10%" width="120%" height="130%"><feDropShadow dx="0" dy="6" stdDeviation="8" flood-color="#1f2937" flood-opacity="0.10"/></filter></defs><rect width="100%" height="100%" fill="url(#bg)"/><g filter="url(#shadow)"><rect x="16" y="16" width="488" height="228" rx="18" fill="#ffffff" stroke="#d8dee8"/><rect x="36" y="38" width="5" height="34" rx="2.5" fill="#6f42c1"/><text x="52" y="48" font-family="Arial, sans-serif" font-size="19" font-weight="700" fill="#24292f">Languages</text><text x="52" y="66" font-family="Arial, sans-serif" font-size="12" fill="#57606a">Repository language share</text></g><rect x="40" y="74" width="440" height="8" rx="4" fill="#f0e7ff" stroke="none"/><rect x="42" y="74" width="178" height="8" rx="4" fill="#dea584" stroke="none"/><rect x="220" y="74" width="133" height="8" rx="4" fill="#c065db" stroke="none"/><rect x="353" y="74" width="36" height="8" rx="4" fill="#f1e05a" stroke="none"/><rect x="389" y="74" width="31" height="8" rx="4" fill="#00ADD8" stroke="none"/><rect x="420" y="74" width="28" height="8" rx="4" fill="#ec915c" stroke="none"/><rect x="448" y="74" width="30" height="8" rx="4" fill="#384d54" stroke="none"/><text x="40" y="106" font-family="Arial, sans-serif" font-size="11" fill="#24292f">Rust</text><text x="422" y="106" font-family="Arial, sans-serif" font-size="11" fill="#57606a">40.9%</text><rect x="134" y="100" width="290" height="5" rx="3" fill="#f0e7ff" stroke="none"/><rect x="134" y="100" width="118" height="5" rx="3" fill="#dea584" stroke="none"/><text x="40" y="123" font-family="Arial, sans-serif" font-size="11" fill="#24292f">Emacs Lisp</text><text x="422" y="123" font-family="Arial, sans-serif" font-size="11" fill="#57606a">30.6%</text><rect x="134" y="117" width="290" height="5" rx="3" fill="#f0e7ff" stroke="none"/><rect x="134" y="117" width="88" height="5" rx="3" fill="#c065db" stroke="none"/><text x="40" y="140" font-family="Arial, sans-serif" font-size="11" fill="#24292f">JavaScript</text><text x="422" y="140" font-family="Arial, sans-serif" font-size="11" fill="#57606a">8.5%</text><rect x="134" y="134" width="290" height="5" rx="3" fill="#f0e7ff" stroke="none"/><rect x="134" y="134" width="24" height="5" rx="3" fill="#f1e05a" stroke="none"/><text x="40" y="157" font-family="Arial, sans-serif" font-size="11" fill="#24292f">Go</text><text x="422" y="157" font-family="Arial, sans-serif" font-size="11" fill="#57606a">7.3%</text><rect x="134" y="151" width="290" height="5" rx="3" fill="#f0e7ff" stroke="none"/><rect x="134" y="151" width="21" height="5" rx="3" fill="#00ADD8" stroke="none"/><text x="40" y="174" font-family="Arial, sans-serif" font-size="11" fill="#24292f">Zig</text><text x="422" y="174" font-family="Arial, sans-serif" font-size="11" fill="#57606a">6.6%</text><rect x="134" y="168" width="290" height="5" rx="3" fill="#f0e7ff" stroke="none"/><rect x="134" y="168" width="19" height="5" rx="3" fill="#ec915c" stroke="none"/><text x="40" y="191" font-family="Arial, sans-serif" font-size="11" fill="#24292f">Dockerfile</text><text x="422" y="191" font-family="Arial, sans-serif" font-size="11" fill="#57606a">6.2%</text><rect x="134" y="185" width="290" height="5" rx="3" fill="#f0e7ff" stroke="none"/><rect x="134" y="185" width="17" height="5" rx="3" fill="#384d54" stroke="none"/></svg>