<svg xmlns="http://www.w3.org/2000/svg" width="520" height="260" viewBox="0 0 520 260" role="img"><defs><linearGradient id="bg" x1="0" y1="0" x2="1" y2="1"><stop offset="0%" stop-color="#f6f8ff"/><stop offset="100%" stop-color="#f0e7ff"/></linearGradient><filter id="shadow" x="-10%" y="-10%" width="120%" height="130%"><feDropShadow dx="0" dy="6" stdDeviation="8" flood-color="#1f2937" flood-opacity="0.10"/></filter></defs><rect width="100%" height="100%" fill="url(#bg)"/><g filter="url(#shadow)"><rect x="16" y="16" width="488" height="228" rx="18" fill="#ffffff" stroke="#d8dee8"/><rect x="36" y="38" width="5" height="34" rx="2.5" fill="#6f42c1"/><text x="52" y="48" font-family="Arial, sans-serif" font-size="19" font-weight="700" fill="#24292f">Stats</text><text x="52" y="66" font-family="Arial, sans-serif" font-size="12" fill="#57606a">Profile overview</text></g><g><circle cx="48" cy="83" r="5" fill="#6f42c1"/><text x="62" y="87" font-family="Arial, sans-serif" font-size="12" font-weight="700" fill="#24292f">Total Stars</text><text x="330" y="87" text-anchor="end" font-family="Arial, sans-serif" font-size="14" font-weight="800" fill="#24292f">12840</text></g><g><circle cx="48" cy="111" r="5" fill="#1a7f37"/><text x="62" y="115" font-family="Arial, sans-serif" font-size="12" font-weight="700" fill="#24292f">Commits</text><text x="330" y="115" text-anchor="end" font-family="Arial, sans-serif" font-size="14" font-weight="800" fill="#24292f">1840</text></g><g><circle cx="48" cy="139" r="5" fill="#fb8500"/><text x="62" y="143" font-family="Arial, sans-serif" font-size="12" font-weight="700" fill="#24292f">Pull Requests</text><text x="330" y="143" text-anchor="end" font-family="Arial, sans-serif" font-size="14" font-weight="800" fill="#24292f">326</text></g><g><circle cx="48" cy="167" r="5" fill="#d63384"/><text x="62" y="171" font-family="Arial, sans-serif" font-size="12" font-weight="700" fill="#24292f">Issues</text><text x="330" y="171" text-anchor="end" font-family="Arial, sans-serif" font-size="14" font-weight="800" fill="#24292f">118</text></g><g><circle cx="410" cy="126" r="42" fill="#ffffff" stroke="#f0e7ff" stroke-width="6"/><circle cx="410" cy="126" r="42" fill="none" stroke="#ff9800" stroke-width="6" stroke-linecap="round" stroke-dasharray="205 264" transform="rotate(-90 410 126)"/><text x="410" y="134" text-anchor="middle" font-family="Arial, sans-serif" font-size="30" font-weight="900" fill="#24292f">S</text><text x="410" y="104" text-anchor="middle" font-family="Arial, sans-serif" font-size="10" font-weight="700" fill="#57606a">RANK</text><text x="410" y="153" text-anchor="middle" font-family="Arial, sans-serif" font-size="10" fill="#57606a">score 16636</text></g></svg>